<svg width="507" height="144" viewBox="0 0 507 144" fill="none" xmlns="http://www.w3.org/2000/svg">
<g filter="url(#filter0_d_3_22)">
<circle cx="68" cy="72" r="58" stroke="#ED9B20" stroke-width="12"/>
<path d="M84.53 36.6H94.73V101.676L82.898 108.51H53.012L41.18 101.676V36.6H51.38V98.31H84.53V36.6Z" fill="#ED9B20"/>
<path d="M84.53 36.6V35.6H83.53V36.6H84.53ZM94.73 36.6H95.73V35.6H94.73V36.6ZM94.73 101.676L95.2302 102.542L95.73 102.253V101.676H94.73ZM82.898 108.51V109.51H83.166L83.3982 109.376L82.898 108.51ZM53.012 108.51L52.5118 109.376L52.744 109.51H53.012V108.51ZM41.18 101.676H40.18V102.253L40.6798 102.542L41.18 101.676ZM41.18 36.6V35.6H40.18V36.6H41.18ZM51.38 36.6H52.38V35.6H51.38V36.6ZM51.38 98.31H50.38V99.31H51.38V98.31ZM84.53 98.31V99.31H85.53V98.31H84.53ZM84.53 37.6H94.73V35.6H84.53V37.6ZM93.73 36.6V101.676H95.73V36.6H93.73ZM94.2298 100.81L82.3978 107.644L83.3982 109.376L95.2302 102.542L94.2298 100.81ZM82.898 107.51H53.012V109.51H82.898V107.51ZM53.5122 107.644L41.6802 100.81L40.6798 102.542L52.5118 109.376L53.5122 107.644ZM42.18 101.676V36.6H40.18V101.676H42.18ZM41.18 37.6H51.38V35.6H41.18V37.6ZM50.38 36.6V98.31H52.38V36.6H50.38ZM51.38 99.31H84.53V97.31H51.38V99.31ZM85.53 98.31V36.6H83.53V98.31H85.53Z" fill="#ED9B20"/>
<rect x="70" y="86" width="4" height="30" fill="#ED9B20" stroke="#ED9B20" stroke-width="2"/>
<rect x="62" y="86" width="4" height="30" fill="#ED9B20" stroke="#ED9B20" stroke-width="2"/>
<path d="M90 39L90 101" stroke="white" stroke-width="4"/>
<path d="M46 38L46 100" stroke="white" stroke-width="4"/>
<line x1="45.1094" y1="98.3359" x2="54.1094" y2="104.336" stroke="white" stroke-width="4"/>
<line x1="53" y1="104" x2="83" y2="104" stroke="white" stroke-width="4"/>
<line x1="82.0287" y1="104.252" x2="91.0287" y2="99.2517" stroke="white" stroke-width="4"/>
<line x1="64" y1="87" x2="64" y2="115" stroke="white" stroke-width="2"/>
<line x1="72" y1="87" x2="72" y2="115" stroke="white" stroke-width="2"/>
</g>
<path d="M196.56 80.16V47.988H190.092C189.42 47.988 189.084 47.652 189.084 46.98V42.696C189.084 42.024 189.42 41.688 190.092 41.688H210.336C211.008 41.688 211.344 42.024 211.344 42.696V46.98C211.344 47.652 211.008 47.988 210.336 47.988H203.868V79.404C203.868 86.964 201.88 92.732 197.904 96.708C193.984 100.628 188.412 102.588 181.188 102.588C174.02 102.588 168.448 100.628 164.472 96.708C160.496 92.732 158.508 86.964 158.508 79.404V47.988H152.124C151.396 47.988 151.032 47.652 151.032 46.98V42.696C151.032 42.024 151.396 41.688 152.124 41.688H172.284C173.012 41.688 173.376 42.024 173.376 42.696V46.98C173.376 47.652 173.012 47.988 172.284 47.988H165.816V79.656C165.816 90.408 170.968 95.784 181.272 95.784C186.536 95.784 190.4 94.412 192.864 91.668C195.328 88.868 196.56 85.032 196.56 80.16ZM264.006 102H256.026C253.618 102 252.414 100.824 252.414 98.472V76.38C252.414 73.132 251.63 70.612 250.062 68.82C248.494 67.028 246.198 66.132 243.174 66.132C238.862 66.132 235.502 67.896 233.094 71.424C232.814 71.76 232.45 72.376 232.002 73.272V96.372H236.454C237.182 96.372 237.546 96.708 237.546 97.38V100.992C237.546 101.664 237.182 102 236.454 102H220.41C219.682 102 219.318 101.664 219.318 100.992V97.38C219.318 96.708 219.682 96.372 220.41 96.372H225.03V66.3H220.41C219.682 66.3 219.318 65.964 219.318 65.292V61.68C219.318 61.008 219.682 60.672 220.41 60.672H230.238C230.966 60.672 231.33 61.008 231.33 61.68L231.162 67.392H231.414C234.326 62.52 238.834 60.084 244.938 60.084C249.418 60.084 252.918 61.4 255.438 64.032C257.958 66.664 259.246 70.22 259.302 74.7V96.372H264.006C264.734 96.372 265.098 96.708 265.098 97.38V100.992C265.098 101.664 264.734 102 264.006 102ZM294.014 102H277.97C277.242 102 276.878 101.664 276.878 100.992V97.38C276.878 96.708 277.242 96.372 277.97 96.372H282.59V66.3H277.97C277.242 66.3 276.878 65.964 276.878 65.292V61.68C276.878 61.008 277.242 60.672 277.97 60.672H288.554C289.226 60.672 289.562 61.008 289.562 61.68V96.372H294.014C294.742 96.372 295.106 96.708 295.106 97.38V100.992C295.106 101.664 294.742 102 294.014 102ZM289.226 48.24C290.178 49.192 290.654 50.312 290.654 51.6C290.654 52.888 290.178 53.98 289.226 54.876C288.33 55.772 287.238 56.22 285.95 56.22C284.662 56.22 283.542 55.772 282.59 54.876C281.694 53.98 281.246 52.888 281.246 51.6C281.246 50.312 281.694 49.192 282.59 48.24C283.542 47.288 284.662 46.812 285.95 46.812C287.238 46.812 288.33 47.288 289.226 48.24ZM362.723 86.796C363.003 87.02 363.143 87.3 363.143 87.636C363.143 87.916 363.003 88.336 362.723 88.896C362.499 89.4 362.079 90.1 361.463 90.996C360.903 91.836 359.867 93.012 358.355 94.524C356.843 96.036 355.191 97.352 353.399 98.472C351.607 99.536 349.227 100.488 346.259 101.328C343.347 102.168 340.211 102.588 336.851 102.588C328.675 102.588 321.843 99.732 316.355 94.02C310.923 88.308 308.207 80.832 308.207 71.592C308.207 62.296 310.951 54.904 316.439 49.416C321.983 43.928 328.647 41.184 336.431 41.184C345.111 41.184 351.411 44.18 355.331 50.172L355.247 42.696C355.135 42.024 355.471 41.688 356.255 41.688H360.959C361.687 41.688 362.051 42.024 362.051 42.696V61.008C362.051 61.736 361.687 62.1 360.959 62.1H355.667C354.995 62.1 354.659 61.736 354.659 61.008V60.252C354.659 57.676 352.895 55.016 349.367 52.272C345.895 49.472 341.555 48.072 336.347 48.072C331.139 48.072 326.435 50.144 322.235 54.288C318.091 58.376 316.019 64.2 316.019 71.76C316.019 79.264 318.119 85.116 322.319 89.316C326.519 93.46 331.447 95.532 337.103 95.532C343.207 95.532 348.023 94.16 351.551 91.416C354.295 89.288 356.311 87.132 357.599 84.948C358.047 84.108 358.579 83.94 359.195 84.444L362.723 86.796ZM409 96.708C405.08 100.628 400.068 102.588 393.964 102.588C387.86 102.588 382.848 100.656 378.928 96.792C375.008 92.872 373.048 87.692 373.048 81.252C373.048 74.756 375.036 69.604 379.012 65.796C382.988 61.988 387.972 60.084 393.964 60.084C400.012 60.084 404.996 62.016 408.916 65.88C412.892 69.688 414.88 74.812 414.88 81.252C414.88 87.636 412.92 92.788 409 96.708ZM380.104 81.252C380.104 85.844 381.448 89.568 384.136 92.424C386.824 95.28 390.1 96.708 393.964 96.708C397.884 96.708 401.188 95.28 403.876 92.424C406.564 89.568 407.908 85.844 407.908 81.252C407.908 76.66 406.536 72.964 403.792 70.164C401.104 67.364 397.856 65.964 394.048 65.964C390.24 65.964 386.964 67.364 384.22 70.164C381.476 72.964 380.104 76.66 380.104 81.252ZM443.97 102H427.926C427.198 102 426.834 101.664 426.834 100.992V97.38C426.834 96.708 427.198 96.372 427.926 96.372H432.546V66.3H427.926C427.198 66.3 426.834 65.964 426.834 65.292V61.68C426.834 61.008 427.198 60.672 427.926 60.672H438.51C439.182 60.672 439.518 61.008 439.518 61.68V96.372H443.97C444.698 96.372 445.062 96.708 445.062 97.38V100.992C445.062 101.664 444.698 102 443.97 102ZM439.182 48.24C440.134 49.192 440.61 50.312 440.61 51.6C440.61 52.888 440.134 53.98 439.182 54.876C438.286 55.772 437.194 56.22 435.906 56.22C434.618 56.22 433.498 55.772 432.546 54.876C431.65 53.98 431.202 52.888 431.202 51.6C431.202 50.312 431.65 49.192 432.546 48.24C433.498 47.288 434.618 46.812 435.906 46.812C437.194 46.812 438.286 47.288 439.182 48.24ZM502.012 102H494.032C491.624 102 490.42 100.824 490.42 98.472V76.38C490.42 73.132 489.636 70.612 488.068 68.82C486.5 67.028 484.204 66.132 481.18 66.132C476.868 66.132 473.508 67.896 471.1 71.424C470.82 71.76 470.456 72.376 470.008 73.272V96.372H474.46C475.188 96.372 475.552 96.708 475.552 97.38V100.992C475.552 101.664 475.188 102 474.46 102H458.416C457.688 102 457.324 101.664 457.324 100.992V97.38C457.324 96.708 457.688 96.372 458.416 96.372H463.036V66.3H458.416C457.688 66.3 457.324 65.964 457.324 65.292V61.68C457.324 61.008 457.688 60.672 458.416 60.672H468.244C468.972 60.672 469.336 61.008 469.336 61.68L469.168 67.392H469.42C472.332 62.52 476.84 60.084 482.944 60.084C487.424 60.084 490.924 61.4 493.444 64.032C495.964 66.664 497.252 70.22 497.308 74.7V96.372H502.012C502.74 96.372 503.104 96.708 503.104 97.38V100.992C503.104 101.664 502.74 102 502.012 102Z" fill="#ED9B20"/>
<path d="M196.56 47.988H198.56V45.988H196.56V47.988ZM203.868 47.988V45.988H201.868V47.988H203.868ZM197.904 96.708L196.49 95.2938L196.49 95.2938L197.904 96.708ZM164.472 96.708L163.058 98.1222L163.063 98.1272L163.068 98.1322L164.472 96.708ZM158.508 47.988H160.508V45.988H158.508V47.988ZM165.816 47.988V45.988H163.816V47.988H165.816ZM192.864 91.668L194.352 93.0042L194.359 92.9968L194.365 92.9893L192.864 91.668ZM198.56 80.16V47.988H194.56V80.16H198.56ZM196.56 45.988H190.092V49.988H196.56V45.988ZM190.092 45.988C190.064 45.988 190.411 45.9824 190.75 46.3218C191.09 46.6611 191.084 47.0077 191.084 46.98H187.084C187.084 47.6243 187.246 48.4748 187.922 49.1502C188.597 49.8256 189.448 49.988 190.092 49.988V45.988ZM191.084 46.98V42.696H187.084V46.98H191.084ZM191.084 42.696C191.084 42.6683 191.09 43.0148 190.75 43.3542C190.411 43.6936 190.064 43.688 190.092 43.688V39.688C189.448 39.688 188.597 39.8504 187.922 40.5258C187.246 41.2011 187.084 42.0517 187.084 42.696H191.084ZM190.092 43.688H210.336V39.688H190.092V43.688ZM210.336 43.688C210.364 43.688 210.017 43.6936 209.678 43.3542C209.338 43.0149 209.344 42.6683 209.344 42.696H213.344C213.344 42.0517 213.182 41.2011 212.506 40.5258C211.831 39.8504 210.98 39.688 210.336 39.688V43.688ZM209.344 42.696V46.98H213.344V42.696H209.344ZM209.344 46.98C209.344 47.0077 209.338 46.6611 209.678 46.3218C210.017 45.9824 210.364 45.988 210.336 45.988V49.988C210.98 49.988 211.831 49.8256 212.506 49.1502C213.182 48.4749 213.344 47.6243 213.344 46.98H209.344ZM210.336 45.988H203.868V49.988H210.336V45.988ZM201.868 47.988V79.404H205.868V47.988H201.868ZM201.868 79.404C201.868 86.6218 199.976 91.8078 196.49 95.2938L199.318 98.1222C203.784 93.6562 205.868 87.3062 205.868 79.404H201.868ZM196.49 95.2938C193.049 98.7349 188.049 100.588 181.188 100.588V104.588C188.775 104.588 194.919 102.521 199.318 98.1222L196.49 95.2938ZM181.188 100.588C174.39 100.588 169.38 98.7383 165.876 95.2838L163.068 98.1322C167.516 102.518 173.65 104.588 181.188 104.588V100.588ZM165.886 95.2938C162.4 91.8078 160.508 86.6218 160.508 79.404H156.508C156.508 87.3062 158.592 93.6562 163.058 98.1222L165.886 95.2938ZM160.508 79.404V47.988H156.508V79.404H160.508ZM158.508 45.988H152.124V49.988H158.508V45.988ZM152.124 45.988C152.03 45.988 152.333 45.963 152.662 46.2664C153.02 46.5977 153.032 46.9648 153.032 46.98H149.032C149.032 47.6672 149.226 48.5383 149.948 49.2056C150.641 49.845 151.49 49.988 152.124 49.988V45.988ZM153.032 46.98V42.696H149.032V46.98H153.032ZM153.032 42.696C153.032 42.7112 153.02 43.0783 152.662 43.4096C152.333 43.7129 152.03 43.688 152.124 43.688V39.688C151.49 39.688 150.641 39.831 149.948 40.4704C149.226 41.1377 149.032 42.0088 149.032 42.696H153.032ZM152.124 43.688H172.284V39.688H152.124V43.688ZM172.284 43.688C172.378 43.688 172.075 43.7129 171.746 43.4096C171.388 43.0783 171.376 42.7112 171.376 42.696H175.376C175.376 42.0088 175.182 41.1377 174.46 40.4704C173.767 39.831 172.918 39.688 172.284 39.688V43.688ZM171.376 42.696V46.98H175.376V42.696H171.376ZM171.376 46.98C171.376 46.9648 171.388 46.5977 171.746 46.2664C172.075 45.963 172.378 45.988 172.284 45.988V49.988C172.918 49.988 173.767 49.845 174.46 49.2056C175.182 48.5383 175.376 47.6672 175.376 46.98H171.376ZM172.284 45.988H165.816V49.988H172.284V45.988ZM163.816 47.988V79.656H167.816V47.988H163.816ZM163.816 79.656C163.816 85.3195 165.172 89.9381 168.236 93.1358C171.316 96.3494 175.79 97.784 181.272 97.784V93.784C176.45 93.784 173.196 92.5306 171.124 90.3682C169.036 88.1899 167.816 84.7445 167.816 79.656H163.816ZM181.272 97.784C186.855 97.784 191.369 96.3258 194.352 93.0042L191.376 90.3317C189.431 92.4982 186.217 93.784 181.272 93.784V97.784ZM194.365 92.9893C197.239 89.7241 198.56 85.3663 198.56 80.16H194.56C194.56 84.6977 193.417 88.0119 191.363 90.3467L194.365 92.9893ZM233.094 71.424L234.631 72.7044L234.692 72.6307L234.746 72.5515L233.094 71.424ZM232.002 73.272L230.213 72.3776L230.002 72.7999V73.272H232.002ZM232.002 96.372H230.002V98.372H232.002V96.372ZM225.03 96.372V98.372H227.03V96.372H225.03ZM225.03 66.3H227.03V64.3H225.03V66.3ZM231.33 61.68L233.329 61.7388L233.33 61.7094V61.68H231.33ZM231.162 67.392L229.163 67.3332L229.102 69.392H231.162V67.392ZM231.414 67.392V69.392H232.549L233.131 68.4181L231.414 67.392ZM255.438 64.032L256.883 62.6489L256.883 62.6489L255.438 64.032ZM259.302 74.7H261.302V74.6875L261.302 74.675L259.302 74.7ZM259.302 96.372H257.302V98.372H259.302V96.372ZM264.006 100H256.026V104H264.006V100ZM256.026 100C255.119 100 254.808 99.7783 254.715 99.6872C254.63 99.6047 254.414 99.3276 254.414 98.472H250.414C250.414 99.9684 250.8 101.455 251.92 102.549C253.03 103.634 254.525 104 256.026 104V100ZM254.414 98.472V76.38H250.414V98.472H254.414ZM254.414 76.38C254.414 72.8248 253.554 69.7739 251.567 67.503L248.557 70.137C249.706 71.4501 250.414 73.4392 250.414 76.38H254.414ZM251.567 67.503C249.522 65.1653 246.608 64.132 243.174 64.132V68.132C245.789 68.132 247.466 68.8907 248.557 70.137L251.567 67.503ZM243.174 64.132C238.209 64.132 234.227 66.2164 231.442 70.2965L234.746 72.5515C236.777 69.5756 239.516 68.132 243.174 68.132V64.132ZM231.558 70.1436C231.116 70.6735 230.665 71.4742 230.213 72.3776L233.791 74.1664C234.235 73.2778 234.512 72.8465 234.631 72.7044L231.558 70.1436ZM230.002 73.272V96.372H234.002V73.272H230.002ZM232.002 98.372H236.454V94.372H232.002V98.372ZM236.454 98.372C236.548 98.372 236.245 98.397 235.917 98.0936C235.558 97.7623 235.546 97.3952 235.546 97.38H239.546C239.546 96.6928 239.353 95.8217 238.63 95.1544C237.937 94.515 237.088 94.372 236.454 94.372V98.372ZM235.546 97.38V100.992H239.546V97.38H235.546ZM235.546 100.992C235.546 100.977 235.558 100.61 235.917 100.278C236.245 99.975 236.548 100 236.454 100V104C237.088 104 237.937 103.857 238.63 103.218C239.353 102.55 239.546 101.679 239.546 100.992H235.546ZM236.454 100H220.41V104H236.454V100ZM220.41 100C220.316 100 220.619 99.975 220.948 100.278C221.307 100.61 221.318 100.977 221.318 100.992H217.318C217.318 101.679 217.512 102.55 218.235 103.218C218.927 103.857 219.776 104 220.41 104V100ZM221.318 100.992V97.38H217.318V100.992H221.318ZM221.318 97.38C221.318 97.3952 221.307 97.7623 220.948 98.0936C220.619 98.397 220.316 98.372 220.41 98.372V94.372C219.776 94.372 218.927 94.515 218.235 95.1544C217.512 95.8217 217.318 96.6928 217.318 97.38H221.318ZM220.41 98.372H225.03V94.372H220.41V98.372ZM227.03 96.372V66.3H223.03V96.372H227.03ZM225.03 64.3H220.41V68.3H225.03V64.3ZM220.41 64.3C220.316 64.3 220.619 64.275 220.948 64.5784C221.307 64.9097 221.318 65.2768 221.318 65.292H217.318C217.318 65.9792 217.512 66.8503 218.235 67.5176C218.927 68.157 219.776 68.3 220.41 68.3V64.3ZM221.318 65.292V61.68H217.318V65.292H221.318ZM221.318 61.68C221.318 61.6952 221.307 62.0623 220.948 62.3936C220.619 62.697 220.316 62.672 220.41 62.672V58.672C219.776 58.672 218.927 58.815 218.235 59.4544C217.512 60.1217 217.318 60.9928 217.318 61.68H221.318ZM220.41 62.672H230.238V58.672H220.41V62.672ZM230.238 62.672C230.332 62.672 230.029 62.697 229.701 62.3936C229.342 62.0623 229.33 61.6952 229.33 61.68H233.33C233.33 60.9928 233.137 60.1217 232.414 59.4544C231.721 58.815 230.872 58.672 230.238 58.672V62.672ZM229.331 61.6212L229.163 67.3332L233.161 67.4508L233.329 61.7388L229.331 61.6212ZM231.162 69.392H231.414V65.392H231.162V69.392ZM233.131 68.4181C235.65 64.2034 239.473 62.084 244.938 62.084V58.084C238.195 58.084 233.002 60.8366 229.697 66.3659L233.131 68.4181ZM244.938 62.084C249.006 62.084 251.934 63.2644 253.993 65.4151L256.883 62.6489C253.902 59.5356 249.83 58.084 244.938 58.084V62.084ZM253.993 65.4151C256.087 67.6014 257.251 70.6295 257.302 74.725L261.302 74.675C261.241 69.8105 259.829 65.7265 256.883 62.6489L253.993 65.4151ZM257.302 74.7V96.372H261.302V74.7H257.302ZM259.302 98.372H264.006V94.372H259.302V98.372ZM264.006 98.372C264.1 98.372 263.797 98.397 263.469 98.0936C263.11 97.7623 263.098 97.3952 263.098 97.38H267.098C267.098 96.6928 266.905 95.8217 266.182 95.1544C265.489 94.515 264.64 94.372 264.006 94.372V98.372ZM263.098 97.38V100.992H267.098V97.38H263.098ZM263.098 100.992C263.098 100.977 263.11 100.61 263.469 100.278C263.797 99.975 264.1 100 264.006 100V104C264.64 104 265.489 103.857 266.182 103.218C266.905 102.55 267.098 101.679 267.098 100.992H263.098ZM282.59 96.372V98.372H284.59V96.372H282.59ZM282.59 66.3H284.59V64.3H282.59V66.3ZM289.562 96.372H287.562V98.372H289.562V96.372ZM289.226 48.24L287.769 49.6107L287.79 49.6328L287.812 49.6542L289.226 48.24ZM289.226 54.876L287.855 53.4196L287.833 53.4404L287.812 53.4618L289.226 54.876ZM282.59 54.876L281.176 56.2902L281.197 56.3116L281.219 56.3324L282.59 54.876ZM282.59 48.24L281.176 46.8258L281.154 46.8472L281.133 46.8693L282.59 48.24ZM294.014 100H277.97V104H294.014V100ZM277.97 100C277.876 100 278.179 99.975 278.507 100.278C278.866 100.61 278.878 100.977 278.878 100.992H274.878C274.878 101.679 275.071 102.55 275.794 103.218C276.487 103.857 277.335 104 277.97 104V100ZM278.878 100.992V97.38H274.878V100.992H278.878ZM278.878 97.38C278.878 97.3952 278.866 97.7623 278.507 98.0936C278.179 98.397 277.876 98.372 277.97 98.372V94.372C277.335 94.372 276.487 94.515 275.794 95.1544C275.071 95.8217 274.878 96.6928 274.878 97.38H278.878ZM277.97 98.372H282.59V94.372H277.97V98.372ZM284.59 96.372V66.3H280.59V96.372H284.59ZM282.59 64.3H277.97V68.3H282.59V64.3ZM277.97 64.3C277.876 64.3 278.179 64.275 278.507 64.5784C278.866 64.9097 278.878 65.2768 278.878 65.292H274.878C274.878 65.9792 275.071 66.8503 275.794 67.5176C276.487 68.157 277.335 68.3 277.97 68.3V64.3ZM278.878 65.292V61.68H274.878V65.292H278.878ZM278.878 61.68C278.878 61.6952 278.866 62.0623 278.507 62.3936C278.179 62.697 277.876 62.672 277.97 62.672V58.672C277.335 58.672 276.487 58.815 275.794 59.4544C275.071 60.1217 274.878 60.9928 274.878 61.68H278.878ZM277.97 62.672H288.554V58.672H277.97V62.672ZM288.554 62.672C288.581 62.672 288.235 62.6776 287.896 62.3382C287.556 61.9989 287.562 61.6523 287.562 61.68H291.562C291.562 61.0357 291.399 60.1851 290.724 59.5098C290.049 58.8344 289.198 58.672 288.554 58.672V62.672ZM287.562 61.68V96.372H291.562V61.68H287.562ZM289.562 98.372H294.014V94.372H289.562V98.372ZM294.014 98.372C294.107 98.372 293.805 98.397 293.476 98.0936C293.117 97.7623 293.106 97.3952 293.106 97.38H297.106C297.106 96.6928 296.912 95.8217 296.189 95.1544C295.497 94.515 294.648 94.372 294.014 94.372V98.372ZM293.106 97.38V100.992H297.106V97.38H293.106ZM293.106 100.992C293.106 100.977 293.117 100.61 293.476 100.278C293.805 99.975 294.107 100 294.014 100V104C294.648 104 295.497 103.857 296.189 103.218C296.912 102.55 297.106 101.679 297.106 100.992H293.106ZM287.812 49.6542C288.407 50.2501 288.654 50.8686 288.654 51.6H292.654C292.654 49.7554 291.948 48.1339 290.64 46.8258L287.812 49.6542ZM288.654 51.6C288.654 52.3272 288.412 52.8951 287.855 53.4196L290.597 56.3324C291.943 55.0649 292.654 53.4488 292.654 51.6H288.654ZM287.812 53.4618C287.298 53.9758 286.717 54.22 285.95 54.22V58.22C287.758 58.22 289.362 57.5682 290.64 56.2902L287.812 53.4618ZM285.95 54.22C285.18 54.22 284.548 53.9723 283.961 53.4196L281.219 56.3324C282.536 57.5717 284.144 58.22 285.95 58.22V54.22ZM284.004 53.4618C283.49 52.9477 283.246 52.3674 283.246 51.6H279.246C279.246 53.4086 279.898 55.0123 281.176 56.2902L284.004 53.4618ZM283.246 51.6C283.246 50.8299 283.494 50.1979 284.046 49.6107L281.133 46.8693C279.894 48.1861 279.246 49.7941 279.246 51.6H283.246ZM284.004 49.6542C284.6 49.0584 285.218 48.812 285.95 48.812V44.812C284.105 44.812 282.484 45.5176 281.176 46.8258L284.004 49.6542ZM285.95 48.812C286.677 48.812 287.245 49.0535 287.769 49.6107L290.682 46.8693C289.415 45.5225 287.799 44.812 285.95 44.812V48.812ZM362.723 86.796L363.973 85.2343L363.905 85.18L363.833 85.1319L362.723 86.796ZM362.723 88.896L360.934 88.0016L360.914 88.0422L360.896 88.0837L362.723 88.896ZM361.463 90.996L359.815 89.8629L359.807 89.8747L359.799 89.8866L361.463 90.996ZM358.355 94.524L359.769 95.9382L359.769 95.9382L358.355 94.524ZM353.399 98.472L354.42 100.192L354.44 100.18L354.459 100.168L353.399 98.472ZM346.259 101.328L345.715 99.4036L345.705 99.4064L346.259 101.328ZM316.355 94.02L314.906 95.3983L314.913 95.4057L316.355 94.02ZM316.439 49.416L315.032 47.9946L315.025 48.0018L316.439 49.416ZM355.331 50.172L353.657 51.2669L357.408 56.9998L357.331 50.1495L355.331 50.172ZM355.247 42.696L357.247 42.6735L357.245 42.5193L357.22 42.3672L355.247 42.696ZM349.367 52.272L348.112 53.8288L348.125 53.8399L348.139 53.8507L349.367 52.272ZM322.235 54.288L323.64 55.7118L323.64 55.7117L322.235 54.288ZM322.319 89.316L320.905 90.7302L320.914 90.7397L322.319 89.316ZM351.551 91.416L350.326 89.8356L350.323 89.8373L351.551 91.416ZM357.599 84.948L359.322 85.964L359.344 85.927L359.364 85.8892L357.599 84.948ZM359.195 84.444L357.929 85.9919L358.004 86.0538L358.086 86.1081L359.195 84.444ZM361.474 88.3577C361.421 88.3152 361.326 88.2224 361.249 88.0684C361.17 87.9106 361.143 87.7552 361.143 87.636H365.143C365.143 86.647 364.69 85.8085 363.973 85.2343L361.474 88.3577ZM361.143 87.636C361.143 87.5442 361.154 87.4883 361.156 87.48C361.158 87.4696 361.156 87.4844 361.141 87.5285C361.11 87.6205 361.048 87.7746 360.934 88.0016L364.512 89.7904C364.8 89.2147 365.143 88.4257 365.143 87.636H361.143ZM360.896 88.0837C360.749 88.4138 360.415 88.9907 359.815 89.8629L363.111 92.1291C363.744 91.2093 364.249 90.3862 364.551 89.7083L360.896 88.0837ZM359.799 89.8866C359.355 90.5521 358.439 91.6116 356.941 93.1098L359.769 95.9382C361.295 94.4124 362.451 93.1199 363.127 92.1054L359.799 89.8866ZM356.941 93.1098C355.535 94.516 354.001 95.7372 352.339 96.776L354.459 100.168C356.381 98.9668 358.152 97.556 359.769 95.9382L356.941 93.1098ZM352.378 96.7523C350.788 97.6963 348.587 98.5905 345.715 99.4036L346.804 103.252C349.867 102.385 352.426 101.376 354.42 100.192L352.378 96.7523ZM345.705 99.4064C342.991 100.189 340.044 100.588 336.851 100.588V104.588C340.379 104.588 343.703 104.147 346.813 103.25L345.705 99.4064ZM336.851 100.588C329.2 100.588 322.895 97.9399 317.797 92.6343L314.913 95.4057C320.791 101.524 328.151 104.588 336.851 104.588V100.588ZM317.804 92.6418C312.786 87.3648 310.207 80.4135 310.207 71.592H306.207C306.207 81.2505 309.06 89.2512 314.906 95.3982L317.804 92.6418ZM310.207 71.592C310.207 62.7141 312.813 55.8705 317.853 50.8302L315.025 48.0018C309.089 53.9375 306.207 61.8779 306.207 71.592H310.207ZM317.846 50.8374C323.017 45.7192 329.175 43.184 336.431 43.184V39.184C328.119 39.184 320.95 42.1368 315.032 47.9946L317.846 50.8374ZM336.431 43.184C344.601 43.184 350.189 45.9648 353.657 51.2669L357.005 49.0771C352.633 42.3952 345.621 39.184 336.431 39.184V43.184ZM357.331 50.1495L357.247 42.6735L353.247 42.7185L353.331 50.1945L357.331 50.1495ZM357.22 42.3672C357.221 42.3741 357.295 42.889 356.829 43.3542C356.441 43.7423 356.066 43.688 356.255 43.688V39.688C355.66 39.688 354.725 39.8017 354.001 40.5258C353.2 41.327 353.161 42.3459 353.274 43.0248L357.22 42.3672ZM356.255 43.688H360.959V39.688H356.255V43.688ZM360.959 43.688C361.053 43.688 360.75 43.7129 360.422 43.4096C360.063 43.0783 360.051 42.7112 360.051 42.696H364.051C364.051 42.0088 363.858 41.1377 363.135 40.4704C362.442 39.831 361.593 39.688 360.959 39.688V43.688ZM360.051 42.696V61.008H364.051V42.696H360.051ZM360.051 61.008C360.051 61.0637 360.039 60.7381 360.364 60.4128C360.689 60.0874 361.015 60.1 360.959 60.1V64.1C361.631 64.1 362.503 63.9306 363.192 63.2412C363.882 62.5518 364.051 61.6803 364.051 61.008H360.051ZM360.959 60.1H355.667V64.1H360.959V60.1ZM355.667 60.1C355.682 60.1 356.049 60.1116 356.381 60.4704C356.684 60.7991 356.659 61.1017 356.659 61.008H352.659C352.659 61.6423 352.802 62.4909 353.442 63.1836C354.109 63.9064 354.98 64.1 355.667 64.1V60.1ZM356.659 61.008V60.252H352.659V61.008H356.659ZM356.659 60.252C356.659 56.7237 354.264 53.5469 350.595 50.6933L348.139 53.8507C351.526 56.4851 352.659 58.6283 352.659 60.252H356.659ZM350.623 50.7152C346.737 47.5818 341.932 46.072 336.347 46.072V50.072C341.178 50.072 345.053 51.3622 348.112 53.8288L350.623 50.7152ZM336.347 46.072C330.542 46.072 325.351 48.4044 320.83 52.8643L323.64 55.7117C327.52 51.8836 331.736 50.072 336.347 50.072V46.072ZM320.831 52.8642C316.201 57.431 314.019 63.8319 314.019 71.76H318.019C318.019 64.5681 319.981 59.321 323.64 55.7118L320.831 52.8642ZM314.019 71.76C314.019 79.6474 316.237 86.0626 320.905 90.7302L323.733 87.9018C320.001 84.1694 318.019 78.8806 318.019 71.76H314.019ZM320.914 90.7397C325.471 95.2352 330.897 97.532 337.103 97.532V93.532C331.998 93.532 327.568 91.6848 323.724 87.8923L320.914 90.7397ZM337.103 97.532C343.491 97.532 348.791 96.0963 352.779 92.9947L350.323 89.8373C347.255 92.2236 342.923 93.532 337.103 93.532V97.532ZM352.777 92.9964C355.652 90.7669 357.867 88.4302 359.322 85.964L355.876 83.932C354.755 85.8338 352.939 87.8091 350.326 89.8356L352.777 92.9964ZM359.364 85.8892C359.416 85.7905 359.43 85.7914 359.385 85.8382C359.336 85.8889 359.19 86.019 358.936 86.0992C358.664 86.1853 358.395 86.1725 358.187 86.1115C358.003 86.0577 357.917 85.9826 357.929 85.9919L360.462 82.8961C359.873 82.4144 358.891 81.9187 357.732 82.2848C356.714 82.6063 356.142 83.4294 355.834 84.0068L359.364 85.8892ZM358.086 86.1081L361.614 88.4601L363.833 85.1319L360.305 82.7799L358.086 86.1081ZM409 96.708L407.586 95.2938L409 96.708ZM378.928 96.792L377.514 98.2062L377.519 98.2113L377.524 98.2164L378.928 96.792ZM379.012 65.796L377.629 64.3516L377.629 64.3516L379.012 65.796ZM408.916 65.88L407.512 67.3044L407.522 67.3144L407.533 67.3244L408.916 65.88ZM384.136 92.424L382.68 93.7947L382.68 93.7947L384.136 92.424ZM403.876 92.424L405.332 93.7947L405.332 93.7947L403.876 92.424ZM403.792 70.164L402.349 71.5491L402.356 71.5565L402.364 71.5639L403.792 70.164ZM384.22 70.164L385.648 71.5639L385.648 71.5639L384.22 70.164ZM407.586 95.2938C404.08 98.799 399.596 100.588 393.964 100.588V104.588C400.539 104.588 406.079 102.457 410.414 98.1222L407.586 95.2938ZM393.964 100.588C388.323 100.588 383.835 98.821 380.332 95.3676L377.524 98.2164C381.86 102.491 387.397 104.588 393.964 104.588V100.588ZM380.342 95.3778C376.858 91.8937 375.048 87.2543 375.048 81.252H371.048C371.048 88.1297 373.158 93.8503 377.514 98.2062L380.342 95.3778ZM375.048 81.252C375.048 75.1951 376.884 70.6034 380.395 67.2404L377.629 64.3516C373.188 68.6046 371.048 74.3169 371.048 81.252H375.048ZM380.395 67.2404C383.964 63.822 388.438 62.084 393.964 62.084V58.084C387.506 58.084 382.011 60.154 377.629 64.3516L380.395 67.2404ZM393.964 62.084C399.543 62.084 404.005 63.8473 407.512 67.3044L410.32 64.4556C405.987 60.1847 400.48 58.084 393.964 58.084V62.084ZM407.533 67.3244C411.048 70.6908 412.88 75.2568 412.88 81.252H416.88C416.88 74.3672 414.736 68.6852 410.299 64.4356L407.533 67.3244ZM412.88 81.252C412.88 87.1927 411.073 91.8063 407.586 95.2938L410.414 98.1222C414.767 93.7697 416.88 88.0793 416.88 81.252H412.88ZM378.104 81.252C378.104 86.2605 379.583 90.5051 382.68 93.7947L385.592 91.0533C383.312 88.6309 382.104 85.4275 382.104 81.252H378.104ZM382.68 93.7947C385.739 97.0455 389.539 98.708 393.964 98.708V94.708C390.661 94.708 387.909 93.5145 385.592 91.0533L382.68 93.7947ZM393.964 98.708C398.436 98.708 402.267 97.0521 405.332 93.7947L402.42 91.0533C400.109 93.5079 397.332 94.708 393.964 94.708V98.708ZM405.332 93.7947C408.428 90.5051 409.908 86.2605 409.908 81.252H405.908C405.908 85.4275 404.699 88.6309 402.42 91.0533L405.332 93.7947ZM409.908 81.252C409.908 76.233 408.393 72.0016 405.22 68.7641L402.364 71.5639C404.679 73.9264 405.908 77.087 405.908 81.252H409.908ZM405.235 68.7789C402.178 65.5946 398.412 63.964 394.048 63.964V67.964C397.3 67.964 400.03 69.1334 402.349 71.5491L405.235 68.7789ZM394.048 63.964C389.685 63.964 385.899 65.593 382.792 68.7641L385.648 71.5639C388.029 69.135 390.795 67.964 394.048 67.964V63.964ZM382.792 68.7641C379.619 72.0016 378.104 76.233 378.104 81.252H382.104C382.104 77.087 383.333 73.9264 385.648 71.5639L382.792 68.7641ZM432.546 96.372V98.372H434.546V96.372H432.546ZM432.546 66.3H434.546V64.3H432.546V66.3ZM439.518 96.372H437.518V98.372H439.518V96.372ZM439.182 48.24L437.726 49.6107L437.747 49.6328L437.768 49.6542L439.182 48.24ZM439.182 54.876L437.811 53.4196L437.789 53.4404L437.768 53.4618L439.182 54.876ZM432.546 54.876L431.132 56.2902L431.153 56.3116L431.175 56.3324L432.546 54.876ZM432.546 48.24L431.132 46.8258L431.111 46.8472L431.09 46.8693L432.546 48.24ZM443.97 100H427.926V104H443.97V100ZM427.926 100C427.833 100 428.135 99.975 428.464 100.278C428.823 100.61 428.834 100.977 428.834 100.992H424.834C424.834 101.679 425.028 102.55 425.751 103.218C426.443 103.857 427.292 104 427.926 104V100ZM428.834 100.992V97.38H424.834V100.992H428.834ZM428.834 97.38C428.834 97.3952 428.823 97.7623 428.464 98.0936C428.135 98.397 427.833 98.372 427.926 98.372V94.372C427.292 94.372 426.443 94.515 425.751 95.1544C425.028 95.8217 424.834 96.6928 424.834 97.38H428.834ZM427.926 98.372H432.546V94.372H427.926V98.372ZM434.546 96.372V66.3H430.546V96.372H434.546ZM432.546 64.3H427.926V68.3H432.546V64.3ZM427.926 64.3C427.833 64.3 428.135 64.275 428.464 64.5784C428.823 64.9097 428.834 65.2768 428.834 65.292H424.834C424.834 65.9792 425.028 66.8503 425.751 67.5176C426.443 68.157 427.292 68.3 427.926 68.3V64.3ZM428.834 65.292V61.68H424.834V65.292H428.834ZM428.834 61.68C428.834 61.6952 428.823 62.0623 428.464 62.3936C428.135 62.697 427.833 62.672 427.926 62.672V58.672C427.292 58.672 426.443 58.815 425.751 59.4544C425.028 60.1217 424.834 60.9928 424.834 61.68H428.834ZM427.926 62.672H438.51V58.672H427.926V62.672ZM438.51 62.672C438.538 62.672 438.191 62.6776 437.852 62.3382C437.513 61.9989 437.518 61.6523 437.518 61.68H441.518C441.518 61.0357 441.356 60.1851 440.68 59.5098C440.005 58.8344 439.154 58.672 438.51 58.672V62.672ZM437.518 61.68V96.372H441.518V61.68H437.518ZM439.518 98.372H443.97V94.372H439.518V98.372ZM443.97 98.372C444.064 98.372 443.761 98.397 443.433 98.0936C443.074 97.7623 443.062 97.3952 443.062 97.38H447.062C447.062 96.6928 446.869 95.8217 446.146 95.1544C445.453 94.515 444.605 94.372 443.97 94.372V98.372ZM443.062 97.38V100.992H447.062V97.38H443.062ZM443.062 100.992C443.062 100.977 443.074 100.61 443.433 100.278C443.761 99.975 444.064 100 443.97 100V104C444.605 104 445.453 103.857 446.146 103.218C446.869 102.55 447.062 101.679 447.062 100.992H443.062ZM437.768 49.6542C438.364 50.2501 438.61 50.8686 438.61 51.6H442.61C442.61 49.7554 441.905 48.1339 440.596 46.8258L437.768 49.6542ZM438.61 51.6C438.61 52.3272 438.369 52.8951 437.811 53.4196L440.553 56.3324C441.9 55.0649 442.61 53.4488 442.61 51.6H438.61ZM437.768 53.4618C437.254 53.9758 436.674 54.22 435.906 54.22V58.22C437.715 58.22 439.318 57.5682 440.596 56.2902L437.768 53.4618ZM435.906 54.22C435.136 54.22 434.504 53.9723 433.917 53.4196L431.175 56.3324C432.492 57.5717 434.1 58.22 435.906 58.22V54.22ZM433.96 53.4618C433.446 52.9477 433.202 52.3674 433.202 51.6H429.202C429.202 53.4086 429.854 55.0123 431.132 56.2902L433.96 53.4618ZM433.202 51.6C433.202 50.8299 433.45 50.1979 434.003 49.6107L431.09 46.8693C429.85 48.1861 429.202 49.7941 429.202 51.6H433.202ZM433.96 49.6542C434.556 49.0584 435.175 48.812 435.906 48.812V44.812C434.062 44.812 432.44 45.5176 431.132 46.8258L433.96 49.6542ZM435.906 48.812C436.633 48.812 437.201 49.0535 437.726 49.6107L440.639 46.8693C439.371 45.5225 437.755 44.812 435.906 44.812V48.812ZM471.1 71.424L472.636 72.7044L472.697 72.6307L472.751 72.5515L471.1 71.424ZM470.008 73.272L468.219 72.3776L468.008 72.7999V73.272H470.008ZM470.008 96.372H468.008V98.372H470.008V96.372ZM463.036 96.372V98.372H465.036V96.372H463.036ZM463.036 66.3H465.036V64.3H463.036V66.3ZM469.336 61.68L471.335 61.7388L471.336 61.7094V61.68H469.336ZM469.168 67.392L467.168 67.3332L467.108 69.392H469.168V67.392ZM469.42 67.392V69.392H470.554L471.136 68.4181L469.42 67.392ZM493.444 64.032L494.888 62.6489L494.888 62.6489L493.444 64.032ZM497.308 74.7H499.308V74.6875L499.307 74.675L497.308 74.7ZM497.308 96.372H495.308V98.372H497.308V96.372ZM502.012 100H494.032V104H502.012V100ZM494.032 100C493.124 100 492.813 99.7783 492.72 99.6872C492.636 99.6047 492.42 99.3276 492.42 98.472H488.42C488.42 99.9684 488.806 101.455 489.925 102.549C491.036 103.634 492.531 104 494.032 104V100ZM492.42 98.472V76.38H488.42V98.472H492.42ZM492.42 76.38C492.42 72.8248 491.56 69.7739 489.573 67.503L486.562 70.137C487.711 71.4501 488.42 73.4392 488.42 76.38H492.42ZM489.573 67.503C487.527 65.1653 484.613 64.132 481.18 64.132V68.132C483.794 68.132 485.472 68.8907 486.562 70.137L489.573 67.503ZM481.18 64.132C476.214 64.132 472.233 66.2164 469.448 70.2965L472.751 72.5515C474.783 69.5756 477.521 68.132 481.18 68.132V64.132ZM469.563 70.1436C469.122 70.6735 468.67 71.4742 468.219 72.3776L471.796 74.1664C472.241 73.2778 472.518 72.8465 472.636 72.7044L469.563 70.1436ZM468.008 73.272V96.372H472.008V73.272H468.008ZM470.008 98.372H474.46V94.372H470.008V98.372ZM474.46 98.372C474.553 98.372 474.251 98.397 473.922 98.0936C473.563 97.7623 473.552 97.3952 473.552 97.38H477.552C477.552 96.6928 477.358 95.8217 476.635 95.1544C475.942 94.515 475.094 94.372 474.46 94.372V98.372ZM473.552 97.38V100.992H477.552V97.38H473.552ZM473.552 100.992C473.552 100.977 473.563 100.61 473.922 100.278C474.251 99.975 474.553 100 474.46 100V104C475.094 104 475.942 103.857 476.635 103.218C477.358 102.55 477.552 101.679 477.552 100.992H473.552ZM474.46 100H458.416V104H474.46V100ZM458.416 100C458.322 100 458.624 99.975 458.953 100.278C459.312 100.61 459.324 100.977 459.324 100.992H455.324C455.324 101.679 455.517 102.55 456.24 103.218C456.933 103.857 457.781 104 458.416 104V100ZM459.324 100.992V97.38H455.324V100.992H459.324ZM459.324 97.38C459.324 97.3952 459.312 97.7623 458.953 98.0936C458.624 98.397 458.322 98.372 458.416 98.372V94.372C457.781 94.372 456.933 94.515 456.24 95.1544C455.517 95.8217 455.324 96.6928 455.324 97.38H459.324ZM458.416 98.372H463.036V94.372H458.416V98.372ZM465.036 96.372V66.3H461.036V96.372H465.036ZM463.036 64.3H458.416V68.3H463.036V64.3ZM458.416 64.3C458.322 64.3 458.624 64.275 458.953 64.5784C459.312 64.9097 459.324 65.2768 459.324 65.292H455.324C455.324 65.9792 455.517 66.8503 456.24 67.5176C456.933 68.157 457.781 68.3 458.416 68.3V64.3ZM459.324 65.292V61.68H455.324V65.292H459.324ZM459.324 61.68C459.324 61.6952 459.312 62.0623 458.953 62.3936C458.624 62.697 458.322 62.672 458.416 62.672V58.672C457.781 58.672 456.933 58.815 456.24 59.4544C455.517 60.1217 455.324 60.9928 455.324 61.68H459.324ZM458.416 62.672H468.244V58.672H458.416V62.672ZM468.244 62.672C468.337 62.672 468.035 62.697 467.706 62.3936C467.347 62.0623 467.336 61.6952 467.336 61.68H471.336C471.336 60.9928 471.142 60.1217 470.419 59.4544C469.726 58.815 468.878 58.672 468.244 58.672V62.672ZM467.336 61.6212L467.168 67.3332L471.167 67.4508L471.335 61.7388L467.336 61.6212ZM469.168 69.392H469.42V65.392H469.168V69.392ZM471.136 68.4181C473.655 64.2034 477.479 62.084 482.944 62.084V58.084C476.2 58.084 471.008 60.8366 467.703 66.3659L471.136 68.4181ZM482.944 62.084C487.012 62.084 489.94 63.2644 491.999 65.4151L494.888 62.6489C491.907 59.5356 487.835 58.084 482.944 58.084V62.084ZM491.999 65.4151C494.092 67.6014 495.257 70.6295 495.308 74.725L499.307 74.675C499.247 69.8105 497.835 65.7265 494.888 62.6489L491.999 65.4151ZM495.308 74.7V96.372H499.308V74.7H495.308ZM497.308 98.372H502.012V94.372H497.308V98.372ZM502.012 98.372C502.105 98.372 501.803 98.397 501.474 98.0936C501.115 97.7623 501.104 97.3952 501.104 97.38H505.104C505.104 96.6928 504.91 95.8217 504.187 95.1544C503.495 94.515 502.646 94.372 502.012 94.372V98.372ZM501.104 97.38V100.992H505.104V97.38H501.104ZM501.104 100.992C501.104 100.977 501.115 100.61 501.474 100.278C501.803 99.975 502.105 100 502.012 100V104C502.646 104 503.495 103.857 504.187 103.218C504.91 102.55 505.104 101.679 505.104 100.992H501.104Z" fill="#ED9B20"/>
<circle cx="67.5" cy="71.5" r="58" stroke="#4A5137" stroke-width="5" stroke-miterlimit="1.41421" stroke-dasharray="9 9"/>
<defs>
<filter id="filter0_d_3_22" x="0" y="8" width="136" height="136" filterUnits="userSpaceOnUse" color-interpolation-filters="sRGB">
<feFlood flood-opacity="0" result="BackgroundImageFix"/>
<feColorMatrix in="SourceAlpha" type="matrix" values="0 0 0 0 0 0 0 0 0 0 0 0 0 0 0 0 0 0 127 0" result="hardAlpha"/>
<feOffset dy="4"/>
<feGaussianBlur stdDeviation="2"/>
<feComposite in2="hardAlpha" operator="out"/>
<feColorMatrix type="matrix" values="0 0 0 0 0 0 0 0 0 0 0 0 0 0 0 0 0 0 0.25 0"/>
<feBlend mode="normal" in2="BackgroundImageFix" result="effect1_dropShadow_3_22"/>
<feBlend mode="normal" in="SourceGraphic" in2="effect1_dropShadow_3_22" result="shape"/>
</filter>
</defs>
</svg>
